<svg xmlns="http://www.w3.org/2000/svg" width="504" height="67" fill="none"><path fill="url(#a)" fill-rule="evenodd" d="M54.57 61.902a1.03 1.03 0 0 1-.036-.323L55.78 36.67l-3.77 3.77a2.065 2.065 0 1 1-2.918-2.918l5.103-5.103-5.103-5.103a2.064 2.064 0 0 1 2.918-2.919l4.175 4.175L57.613 0 39.276 4.232a3.1 3.1 0 0 1-1.446-.013l-16.8-4.2.75 29.965h4.123a2.064 2.064 0 0 1 0 4.127h-4.02l.686 27.494a1.05 1.05 0 0 1-.035.298l15.203 4.146a3.095 3.095 0 0 0 1.628 0l15.204-4.146.001-.001ZM19.831 34.667l.674 26.99a1.1 1.1 0 0 0 .03.225L6.623 65.36a3.094 3.094 0 0 1-3.84-2.843L1.73 42.019c.16-.024.32-.067.477-.131l4.84-1.983a2.065 2.065 0 0 0-1.566-3.82l-3.97 1.629L.003 8.353a3.094 3.094 0 0 1 2.18-3.116L18.967.073l.754 30.178-4.563 1.87a2.063 2.063 0 0 0 1.565 3.819l3.11-1.274-.002.001Zm36.765 27.015 1.28-25.583 4.341 4.342a2.063 2.063 0 1 0 2.918-2.919l-5.103-5.103 5.103-5.104a2.065 2.065 0 1 0-2.918-2.918l-3.955 3.954L59.675.097 74.99 5.202a3.094 3.094 0 0 1 2.11 3.093l-2.78 54.222a3.094 3.094 0 0 1-3.84 2.843l-13.914-3.479c.016-.064.026-.13.03-.199ZM36.148 29.984a2.064 2.064 0 0 0 0 4.127h5.123a2.064 2.064 0 0 0 0-4.127h-5.123Z" clip-rule="evenodd"/><path fill="#1F2348" d="M127.292 54.63c-4.033 0-7.499-.808-10.396-2.421-2.86-1.65-5.06-3.96-6.6-6.93-1.54-3.008-2.31-6.546-2.31-10.616 0-4.07.77-7.591 2.31-10.561 1.54-2.97 3.74-5.262 6.6-6.876 2.897-1.65 6.363-2.475 10.396-2.475 2.714 0 5.152.385 7.316 1.155 2.2.77 4.088 1.907 5.665 3.41l-2.31 5.61c-1.723-1.393-3.392-2.383-5.005-2.97-1.577-.623-3.392-.934-5.446-.934-3.923 0-6.93 1.191-9.02 3.575-2.054 2.347-3.081 5.702-3.081 10.066 0 4.363 1.027 7.737 3.081 10.12 2.09 2.384 5.097 3.576 9.02 3.576 2.054 0 3.869-.294 5.446-.88 1.613-.624 3.282-1.65 5.005-3.08l2.31 5.61c-1.577 1.467-3.465 2.603-5.665 3.41-2.164.807-4.602 1.21-7.316 1.21Zm23.463-.55V15.3h16.942c4.253 0 7.535 1.008 9.846 3.025 2.346 2.017 3.52 4.822 3.52 8.416 0 2.383-.532 4.419-1.595 6.105-1.027 1.687-2.512 2.989-4.456 3.906-1.943.88-4.235 1.32-6.875 1.32l.77-1.045h1.87c1.54 0 2.915.403 4.125 1.21 1.21.807 2.2 2.035 2.971 3.685l5.665 12.156h-7.811l-5.72-12.596c-.513-1.283-1.302-2.127-2.365-2.53-1.027-.404-2.274-.605-3.741-.605h-6.05v15.731h-7.096Zm7.096-20.957h8.691c2.493 0 4.382-.514 5.665-1.54 1.32-1.064 1.98-2.604 1.98-4.621 0-2.017-.66-3.539-1.98-4.565-1.283-1.027-3.172-1.54-5.665-1.54h-8.691v12.266Zm44.407 20.956V35.763l1.485 4.235-16.666-24.697h8.195l11.441 17.601h-1.54l11.441-17.601h7.921l-16.612 24.697 1.43-4.235v18.316h-7.095Zm30.647 0V15.301h17.217c4.253 0 7.499 1.027 9.735 3.08 2.237 2.054 3.356 4.877 3.356 8.471 0 3.557-1.119 6.38-3.356 8.47-2.236 2.09-5.482 3.136-9.735 3.136h-10.121v15.621h-7.096Zm7.096-21.232h9.296c2.346 0 4.107-.513 5.28-1.54 1.173-1.063 1.76-2.548 1.76-4.455s-.587-3.374-1.76-4.4c-1.173-1.064-2.934-1.596-5.28-1.596h-9.296v11.991Zm41.552 21.232V21.132h-12.816V15.3h32.728v5.83h-12.816V54.08h-7.096ZM306.7 34.663c0-4.07.733-7.591 2.2-10.561 1.503-2.97 3.648-5.262 6.435-6.876 2.787-1.65 6.106-2.475 9.956-2.475 3.814 0 7.114.825 9.901 2.475 2.787 1.614 4.932 3.905 6.435 6.876 1.54 2.97 2.31 6.472 2.31 10.506 0 4.07-.77 7.609-2.31 10.615-1.503 2.97-3.648 5.28-6.435 6.931-2.787 1.65-6.087 2.475-9.901 2.475-3.85 0-7.169-.825-9.956-2.475-2.75-1.65-4.877-3.96-6.38-6.93-1.504-3.007-2.255-6.528-2.255-10.561Zm7.425 0c0 4.363.935 7.774 2.805 10.23 1.871 2.457 4.657 3.686 8.361 3.686 3.594 0 6.362-1.229 8.306-3.686 1.943-2.456 2.915-5.867 2.915-10.23 0-4.4-.972-7.811-2.915-10.231-1.907-2.42-4.676-3.63-8.306-3.63-3.704 0-6.49 1.21-8.361 3.63-1.87 2.42-2.805 5.83-2.805 10.23Zm59.984 19.416V15.301h6.215l14.246 32.068h-1.705L407.111 15.3h6.161v38.778h-6.436V25.312h1.98L395.78 54.079h-4.235l-13.036-28.767h2.035v28.767h-6.435Zm47.365 0 17.546-38.778h5.941l17.766 38.778h-7.206l-4.73-10.89 2.86 1.924h-23.266l2.97-1.925-4.731 10.891h-7.15Zm20.461-31.187-7.755 18.371-1.43-1.705h18.481l-1.155 1.705-7.921-18.371h-.22Zm28.933 31.187V15.301h17.216c4.254 0 7.499 1.027 9.736 3.08 2.237 2.054 3.355 4.877 3.355 8.471 0 3.557-1.118 6.38-3.355 8.47-2.237 2.09-5.482 3.136-9.736 3.136h-10.121v15.621h-7.095Zm7.095-21.232h9.296c2.347 0 4.107-.513 5.28-1.54 1.174-1.063 1.761-2.548 1.761-4.455s-.587-3.374-1.761-4.4c-1.173-1.064-2.933-1.596-5.28-1.596h-9.296v11.991Z"/><defs><radialGradient id="a" cx="0" cy="0" r="1" gradientTransform="matrix(-77.105 0 0 -66.1586 77.105 66.159)" gradientUnits="userSpaceOnUse"><stop stop-color="#EC991C"/><stop offset="1" stop-color="#E9B213"/></radialGradient></defs></svg>
