<svg xmlns="http://www.w3.org/2000/svg" width="501" height="67" fill="none"><path fill="url(#a)" fill-rule="evenodd" d="M54.57 61.902a1.03 1.03 0 0 1-.036-.323L55.78 36.67l-3.77 3.77a2.065 2.065 0 1 1-2.918-2.918l5.103-5.103-5.103-5.103a2.064 2.064 0 0 1 2.918-2.919l4.175 4.175L57.613 0 39.276 4.232a3.1 3.1 0 0 1-1.446-.013l-16.8-4.2.75 29.965h4.123a2.064 2.064 0 0 1 0 4.127h-4.02l.686 27.494a1.05 1.05 0 0 1-.035.298l15.203 4.146a3.095 3.095 0 0 0 1.628 0l15.204-4.146.001-.001ZM19.831 34.667l.674 26.99a1.1 1.1 0 0 0 .03.225L6.623 65.36a3.094 3.094 0 0 1-3.84-2.843L1.73 42.019c.16-.024.32-.067.477-.131l4.84-1.983a2.065 2.065 0 0 0-1.566-3.82l-3.97 1.629L.003 8.353a3.094 3.094 0 0 1 2.18-3.116L18.967.073l.754 30.178-4.563 1.87a2.063 2.063 0 0 0 1.565 3.819l3.11-1.274-.002.001Zm36.765 27.015 1.28-25.583 4.341 4.342a2.063 2.063 0 1 0 2.918-2.919l-5.103-5.103 5.103-5.104a2.065 2.065 0 1 0-2.918-2.918l-3.955 3.954L59.675.097 74.99 5.202a3.094 3.094 0 0 1 2.11 3.093l-2.78 54.222a3.094 3.094 0 0 1-3.84 2.843l-13.914-3.479c.016-.064.026-.13.03-.199ZM36.148 29.984a2.064 2.064 0 0 0 0 4.127h5.123a2.064 2.064 0 0 0 0-4.127h-5.123Z" clip-rule="evenodd"/><path fill="#fff" d="M126.962 54.52c-3.887 0-7.26-.808-10.121-2.421-2.86-1.65-5.06-3.979-6.6-6.986-1.504-3.007-2.255-6.563-2.255-10.67 0-4.07.751-7.591 2.255-10.561 1.54-3.007 3.74-5.317 6.6-6.93 2.861-1.65 6.234-2.476 10.121-2.476 2.64 0 5.116.403 7.426 1.21 2.347.77 4.29 1.907 5.83 3.41l-2.31 5.17c-1.797-1.43-3.557-2.456-5.28-3.08-1.724-.66-3.576-.99-5.556-.99-3.777 0-6.71 1.229-8.801 3.686-2.053 2.42-3.08 5.94-3.08 10.56s1.027 8.178 3.08 10.671c2.091 2.457 5.024 3.686 8.801 3.686 1.98 0 3.832-.312 5.556-.935 1.723-.66 3.483-1.706 5.28-3.136l2.31 5.17c-1.54 1.504-3.483 2.66-5.83 3.466-2.31.77-4.786 1.155-7.426 1.155Zm23.685-.44V14.915h16.776c4.437 0 7.811.972 10.121 2.915 2.31 1.944 3.465 4.73 3.465 8.36 0 3.448-1.192 6.198-3.575 8.252-2.384 2.016-5.702 3.025-9.956 3.025l4.4-.88c1.357 0 2.567.403 3.631 1.21 1.063.807 1.906 2.053 2.53 3.74l4.84 12.541h-7.48l-4.951-13.036c-.513-1.283-1.247-2.145-2.2-2.585-.917-.44-2.072-.66-3.465-.66h-7.151v16.281h-6.985Zm6.93-21.783h8.856c2.713 0 4.694-.495 5.94-1.485 1.247-.99 1.871-2.475 1.871-4.455 0-2.017-.624-3.502-1.871-4.455-1.246-.954-3.227-1.43-5.94-1.43h-8.856v11.825Zm44.627 21.782V36.478l1.485 4.29-17.381-25.852h8.086l12.376 19.251h-2.036l12.376-19.251h8.086L207.87 40.768l1.43-4.29v17.601h-7.096Zm28.927 0V14.916h16.997c4.253 0 7.535 1.027 9.845 3.08 2.347 2.017 3.521 4.786 3.521 8.306 0 3.483-1.192 6.252-3.576 8.306-2.346 2.053-5.61 3.08-9.79 3.08h-9.901v16.391h-7.096Zm7.096-21.837h9.076c2.493 0 4.345-.513 5.555-1.54 1.247-1.027 1.87-2.475 1.87-4.345 0-1.907-.605-3.355-1.815-4.345-1.21-1.027-3.08-1.54-5.61-1.54h-9.076v11.77Zm41.661 21.837V20.746h-12.761v-5.83H299.8v5.83h-12.761V54.08h-7.151Zm43.738.44c-3.814 0-7.114-.807-9.901-2.42s-4.932-3.924-6.435-6.93c-1.504-3.008-2.256-6.564-2.256-10.671 0-4.144.752-7.701 2.256-10.671 1.503-3.007 3.648-5.317 6.435-6.93 2.787-1.614 6.087-2.421 9.901-2.421 3.85 0 7.169.807 9.956 2.42 2.787 1.614 4.932 3.924 6.435 6.93 1.504 2.971 2.255 6.51 2.255 10.617 0 4.143-.77 7.718-2.31 10.725-1.503 3.007-3.648 5.318-6.435 6.93-2.751 1.614-6.051 2.421-9.901 2.421Zm0-5.61c3.593 0 6.417-1.229 8.471-3.686 2.053-2.493 3.08-6.087 3.08-10.78 0-4.694-1.027-8.251-3.08-10.671-2.054-2.457-4.878-3.686-8.471-3.686-3.557 0-6.362 1.229-8.416 3.686-2.053 2.42-3.08 5.977-3.08 10.67 0 4.694 1.027 8.288 3.08 10.781 2.054 2.457 4.859 3.686 8.416 3.686Zm48.817 5.17V14.916h5.666l14.796 33.718h-2.695l14.686-33.718h5.665v39.163h-6.325l-.055-28.987 1.87.44-12.211 28.547h-4.675l-12.486-28.547 1.98-.44.055 28.987h-6.271Zm53.388 0h-7.15l17.711-39.163h5.775l17.712 39.163h-7.041l-14.411-33.663h1.925L425.831 54.08Zm.66-9.186 2.695-5.5h19.967l2.585 5.5h-25.247Zm41.475 9.186V14.916h16.996c4.254 0 7.536 1.027 9.846 3.08 2.347 2.017 3.52 4.786 3.52 8.306 0 3.483-1.192 6.252-3.575 8.306-2.347 2.053-5.611 3.08-9.791 3.08h-9.901v16.391h-7.095Zm7.095-21.837h9.076c2.494 0 4.345-.513 5.556-1.54 1.246-1.027 1.87-2.475 1.87-4.345 0-1.907-.605-3.355-1.815-4.345-1.211-1.027-3.081-1.54-5.611-1.54h-9.076v11.77Z"/><defs><radialGradient id="a" cx="0" cy="0" r="1" gradientTransform="matrix(-77.105 0 0 -66.1586 77.105 66.159)" gradientUnits="userSpaceOnUse"><stop stop-color="#EC991C"/><stop offset="1" stop-color="#E9B213"/></radialGradient></defs></svg>
